<svg xmlns="https://www.w3.org/2000/svg" viewBox="0 0 128 128">
        <path fill="#659AD3" d="M115.4 30.7L67.1 2.9c-8-.5-1.9-7.3-1.1-2.3.3-3.1.7-48 27.9c-1.7-1.2-9 3.5-2.9 5.4v55.7c0 1.1.2 2.4 1 3.5 10.6-8.62c-6-1.2-1.5-2.1-2.4-2.7z"/>
        <path fill="#03599C" d="M10.7 95.3c5.8 1.2 1.5 1.9 1.9 1.948.2 27.9c8.5 1.9 3.1 7.1 1.2 0 2.3-.3 3.1-7.3-3.1-7.4c-27.9c1.7-2.9-3.5 2.9-3.5 2.9-4.3 1c-9-1.6-2.8-106.6 62z"/>
        <path fill="#fff" d="M85.3 76.1c1.1 83.5 73.1 88.5 64 88.5c-13.5 0-24.5-24.5-24.5s-24.5 24.5-24.5-24.5c9.1 0 17.1 5 21.3 12.5 17.5-7.5-6.8-11.9-19.6-20-34.3-20-21.8 0-39.5 17.7-39.5 39.5 39.5 39.5c14.6 0 27.4-8"/>
      </svg>